<?xml version="1.0" encoding="utf-8"?>
<!-- Generator: Adobe Illustrator 24.1.1, SVG Export Plug-In . SVG Version: 6.00 Build 0)  -->
<svg version="1.1" id="Capa_1" xmlns="http://www.w3.org/2000/svg" xmlns:xlink="http://www.w3.org/1999/xlink" x="0px" y="0px"
	 viewBox="0 0 11 11.1" style="enable-background:new 0 0 11 11.1;" xml:space="preserve">
<style type="text/css">
	.st0{fill:#2196F3;}
	.st1{fill:#FAFAFA;}
</style>
<g>
	<path class="st0" d="M1.1,0.1h8.7c0.6,0,1.1,0.5,1.1,1.1v8.7c0,0.6-0.5,1.1-1.1,1.1H1.1C0.5,11.1,0,10.5,0,9.9V1.2
		C0,0.6,0.5,0.1,1.1,0.1z"/>
	<path class="st1" d="M8.5,3.3h0.9c0.1,0,0.2-0.1,0.2-0.2V1.7c0-0.1-0.1-0.2-0.2-0.2H8.5C7.1,1.4,6,2.6,6,3.9v1.1H4.8
		c-0.1,0-0.2,0.1-0.2,0.2v1.4c0,0.1,0.1,0.2,0.2,0.2H6v4.1h1.8V6.9h1.1c0.1,0,0.2-0.1,0.2-0.2l0.5-1.4c0-0.1,0-0.2-0.1-0.3
		c0,0,0,0-0.1,0H7.8V3.9C7.8,3.6,8.1,3.3,8.5,3.3z"/>
</g>
</svg>
