<?xml version="1.0" encoding="utf-8"?>
<!-- Generator: Adobe Illustrator 24.1.1, SVG Export Plug-In . SVG Version: 6.00 Build 0)  -->
<svg version="1.1" id="Capa_1" xmlns="http://www.w3.org/2000/svg" xmlns:xlink="http://www.w3.org/1999/xlink" x="0px" y="0px"
	 viewBox="0 0 11 11.1" style="enable-background:new 0 0 11 11.1;" xml:space="preserve">
<style type="text/css">
	.st0{fill:url(#SVGID_1_);}
	.st1{fill:#FFFFFF;}
</style>
<g>
	
		<linearGradient id="SVGID_1_" gradientUnits="userSpaceOnUse" x1="-423.0863" y1="394.7992" x2="-422.8603" y2="395.0422" gradientTransform="matrix(0 -42.2827 39.3387 0 -15530.1387 -17878.8828)">
		<stop  offset="0" style="stop-color:#FFDD55"/>
		<stop  offset="0.5" style="stop-color:#FF543E"/>
		<stop  offset="1" style="stop-color:#C837AB"/>
	</linearGradient>
	<path class="st0" d="M0.7,0.8C-0.1,1.7,0,2.7,0,5.5c0,2.4-0.4,4.8,1.8,5.4c0.7,0.2,6.7,0.2,7.4,0c0.9-0.2,1.7-1,1.8-2.3
		c0-0.2,0-6,0-6.2c-0.1-1.4-1-2.2-2.1-2.3c-0.3,0-0.3,0-1.6-0.1C2.7,0.1,1.6-0.1,0.7,0.8L0.7,0.8z"/>
	<path class="st1" d="M5.5,1.5c-1.7,0-3.2-0.1-3.8,1.4C1.4,3.5,1.5,4.4,1.5,5.6c0,1,0,2,0.2,2.7c0.6,1.5,2.2,1.4,3.8,1.4
		c1.6,0,3.2,0.2,3.8-1.4c0.2-0.6,0.2-1.5,0.2-2.7c0-1.6,0.1-2.6-0.7-3.4C8.1,1.4,7.1,1.5,5.5,1.5L5.5,1.5z M5.2,2.2
		c3.5,0,3.9-0.4,3.7,5C8.7,9.1,7.3,8.9,5.5,8.9c-3.2,0-3.3-0.1-3.3-3.3C2.2,2.3,2.5,2.2,5.2,2.2L5.2,2.2z M7.7,2.9
		c-0.3,0-0.5,0.2-0.5,0.5s0.2,0.5,0.5,0.5c0.3,0,0.5-0.2,0.5-0.5S7.9,2.9,7.7,2.9z M5.5,3.5c-1.1,0-2.1,0.9-2.1,2.1s0.9,2.1,2.1,2.1
		s2.1-0.9,2.1-2.1S6.7,3.5,5.5,3.5L5.5,3.5z M5.5,4.2c1.8,0,1.8,2.7,0,2.7C3.7,6.9,3.7,4.2,5.5,4.2z"/>
</g>
</svg>
