<?xml version="1.0" encoding="utf-8"?>
<!-- Generator: Adobe Illustrator 24.1.1, SVG Export Plug-In . SVG Version: 6.00 Build 0)  -->
<svg version="1.1" id="Capa_1" xmlns="http://www.w3.org/2000/svg" xmlns:xlink="http://www.w3.org/1999/xlink" x="0px" y="0px"
	 viewBox="0 0 11 11.1" style="enable-background:new 0 0 11 11.1;" xml:space="preserve">
<style type="text/css">
	.st0{fill:#403D3C;}
</style>
<g id="Page-1">
	<g id="_x30_03---Call" transform="translate(-1)">
		<path id="Shape" class="st0" d="M5.6,6.5c-1-1-1.3-2.1-1.3-2.5c0-0.1,0-0.2,0.1-0.3l0.8-0.8c0.1-0.1,0.1-0.3,0.1-0.5L3.9,0.3
			C3.8,0.2,3.6,0.1,3.4,0.2l-2.1,1C1.2,1.3,1.1,1.4,1.1,1.6c0.1,1.1,0.6,3.7,3.1,6.3s5.2,3,6.3,3.1c0.2,0,0.3-0.1,0.4-0.2l1-2.1
			c0.1-0.2,0-0.4-0.1-0.5L9.7,6.8C9.5,6.7,9.3,6.7,9.2,6.9L8.4,7.7C8.3,7.8,8.2,7.8,8.1,7.8C7.6,7.7,6.6,7.5,5.6,6.5L5.6,6.5z"/>
	</g>
</g>
</svg>
