<?xml version="1.0" encoding="utf-8"?>
<!-- Generator: Adobe Illustrator 24.2.1, SVG Export Plug-In . SVG Version: 6.00 Build 0)  -->
<svg version="1.1" id="Capa_1" xmlns="http://www.w3.org/2000/svg" xmlns:xlink="http://www.w3.org/1999/xlink" x="0px" y="0px"
	 viewBox="0 0 11 11.1" style="enable-background:new 0 0 11 11.1;" xml:space="preserve">
<style type="text/css">
	.st0{fill:#403D3C;}
	.st1{fill:#FFFFFF;}
</style>
<g>
	<path class="st0" d="M11,4.8c0,0.4,0,0.8,0,1.2c0,0.2-0.1,0.4-0.1,0.6c-0.8,3.5-4.5,5.2-7.7,3.7c-0.2-0.1-0.4-0.1-0.6,0
		c-0.9,0.2-1.7,0.5-2.6,0.8c0.3-0.8,0.5-1.6,0.8-2.5c0.1-0.3,0.1-0.5-0.1-0.8C-0.7,5,0.6,1.5,3.6,0.4C4.1,0.2,4.6,0.1,5,0
		c0.4,0,0.8,0,1.2,0c0.1,0,0.1,0.1,0.2,0.1c2.2,0.4,3.6,1.6,4.4,3.7C10.9,4.1,10.9,4.5,11,4.8z"/>
	<path class="st1" d="M2.9,4.2c0-0.8,0.5-1.3,1-1.3c0.1,0,0.3,0.1,0.3,0.2c0.2,0.3,0.3,0.7,0.4,1c0,0.1-0.1,0.4-0.2,0.5
		c-0.2,0.2-0.3,0.5,0,0.7c0.5,0.4,0.9,0.8,1.4,1.2c0.3,0.2,0.6,0.2,0.7-0.2C6.8,6,7.1,6,7.5,6.2c0.1,0.1,0.3,0.1,0.4,0.2
		c0.5,0.3,0.6,0.7,0.2,1.1C7.7,7.9,7.3,8,6.8,7.9c-1.8-0.4-2.9-1.4-3.7-3C3,4.7,3,4.5,2.9,4.2z"/>
</g>
</svg>
