<?xml version="1.0" encoding="utf-8"?>
<!-- Generator: Adobe Illustrator 24.2.0, SVG Export Plug-In . SVG Version: 6.00 Build 0)  -->
<svg version="1.1" id="a100abed-23bc-47db-847d-fe694c653880"
	 xmlns="http://www.w3.org/2000/svg" xmlns:xlink="http://www.w3.org/1999/xlink" x="0px" y="0px" viewBox="0 0 300.7 300.7"
	 style="enable-background:new 0 0 300.7 300.7;" xml:space="preserve">
<style type="text/css">
	.st0{fill:#5BAAA1;}
	.st1{fill:#FFFFFF;}
</style>
<path class="st0" d="M278.8,300.7H22c-12.1,0-22-9.9-22-22V22C0,9.9,9.9,0,22,0h256.8c12.1,0,22,9.9,22,22v256.8
	C300.7,290.8,290.8,300.7,278.8,300.7z"/>
<g>
	<polygon class="st1" points="70.7,196.3 124.9,107.3 82.5,107.3 82.5,90.8 154.3,90.8 100.1,179.8 152.9,179.8 152.9,196.3 	"/>
	<path class="st1" d="M247.1,176.9c-2.9,7.8-5.7,15.1-8.4,21.6c-2.8,6.6-5.6,12.6-8.6,18.1c4.4-0.4,8.3-1,11.9-1.6
		c3.3-0.6,6.5-1.4,9.7-2.5c2.8-1,5.6-2.3,8.1-3.9c2.6-1.6,4.9-3.5,7.1-5.7c2.4-2.4,4.6-5,6.5-7.8c2.1-3,4.3-6.5,6.6-10.5l3.6-6.6
		l1.9,1.3l-3.7,6.6c-2.1,3.8-4.4,7.5-7,11.1c-2.1,2.9-4.4,5.7-7,8.2c-2.3,2.2-4.9,4.2-7.6,5.8c-2.8,1.6-5.7,2.9-8.7,4
		c-3.4,1.1-6.8,2-10.3,2.6c-3.7,0.6-7.8,1.2-12.3,1.7c-3.3,6-7.1,11.7-11.3,17c-3.5,4.5-7.6,8.6-12.1,12.1c-4,3.1-8.6,5.5-13.4,7.2
		c-4.8,1.6-9.9,2.3-15,2.2c-4.8,0.3-9.4-1.2-13.2-4.1c-3.2-3-4.9-7.3-4.6-11.7c0-3.3,1.1-6.5,3.3-9.1c2.8-3.1,6.4-5.4,10.3-6.8
		c5.9-2.3,12.1-3.9,18.4-4.9c7.5-1.4,16.6-2.6,27.3-3.5c1.9-4,3.8-8.3,5.8-13s4.1-9.9,6.4-15.6l3.4-8.5c-2.1,3.2-4.3,6.2-6.8,9.2
		c-2.2,2.6-4.6,5-7.2,7.2c-2.4,1.9-5,3.5-7.8,4.7c-5,2.1-10.7,2.2-15.8,0.4c-2.3-0.8-4.4-2.1-6.2-3.7c-1.8-1.7-3.2-3.8-4.1-6.2
		c-1.1-2.7-1.6-5.6-1.5-8.5c0-3.8,0.5-7.7,1.5-11.4c1-3.8,2.3-7.6,3.8-11.3c1.5-3.7,3.2-7.5,4.9-11.1c1.7-3.7,3.4-7.3,4.9-11
		c1.5-3.5,2.7-7.2,3.8-10.8c0.9-3.4,1.4-7,1.4-10.5c0-1.2,0-2.4-0.2-3.6c-0.2-1-0.5-2-1-2.9c-1-1.7-2.9-2.7-4.9-2.6
		c-2.3,0.1-4.6,0.8-6.6,2.1c-2.7,1.8-5.1,3.9-7.1,6.4c-2.8,3.4-5.2,7-7.4,10.8c-2.8,5-5.3,10.1-7.4,15.4l-1.9-1.4
		c2.3-5.7,4.9-11.2,8-16.5c2.3-4,5.1-7.8,8.2-11.2c2.3-2.6,5-4.7,8-6.4c2.5-1.3,5.4-2,8.2-2.1c2.2,0,4.4,0.3,6.5,1
		c1.8,0.7,3.5,1.7,4.9,3.1c1.3,1.3,2.4,2.9,3,4.7c0.8,2,1.1,4.1,1.1,6.2c0,3.7-0.6,7.4-1.6,10.9c-1.2,3.9-2.5,7.8-4.1,11.5
		c-1.6,3.9-3.4,7.8-5.3,11.8c-1.9,4-3.7,7.8-5.3,11.7c-1.6,3.6-2.9,7.4-4.1,11.2c-1.1,3.3-1.6,6.8-1.6,10.3c0,1.7,0.2,3.3,0.7,4.9
		c0.4,1.4,1.1,2.7,2.1,3.8c0.8,1,1.9,1.9,3.1,2.4c1.2,0.6,2.6,0.9,3.9,0.9c2.9,0,5.7-0.7,8.2-2.1c2.9-1.5,5.6-3.4,8-5.7
		c2.7-2.5,5.2-5.1,7.4-8c2.3-3,4.5-6.1,6.5-9.2c2.1-3.2,3.7-6.2,5.2-9.3c1.3-2.7,2.5-5.4,3.6-8.2l17.4-46.5h10.6L247.1,176.9z
		 M176.2,254.7c3.8,0,7.6-0.5,11.3-1.5c3.8-1.1,7.3-3,10.3-5.5c3.7-3.1,6.9-6.6,9.6-10.5c3.7-5.4,7-11,9.9-16.9
		c-7.3,0.6-14.3,1.4-20.9,2.5c-5.9,0.9-11.7,2.2-17.4,4.1c-4.3,1.3-8.3,3.4-11.9,6.2c-2.8,2.1-4.4,5.4-4.4,8.9
		c-0.3,3.5,0.9,6.9,3.3,9.5C168.2,253.7,171.6,254.7,176.2,254.7L176.2,254.7z"/>
	<path class="st1" d="M140.3,223.4c-8.7,2.9-18.1,4.5-27.8,4.5c-48.5,0-87.7-39.3-87.7-87.7c0-48.5,39.3-87.7,87.7-87.7
		c30.1,0,56.7,15.2,72.5,38.3h11.4c-16.9-28.7-48.2-47.9-83.9-47.9c-53.8,0-97.3,43.6-97.3,97.3s43.6,97.3,97.3,97.3
		c9.7,0,19-1.4,27.8-4V223.4z"/>
</g>
</svg>
